<?xml version="1.0" standalone="no"?>
<!DOCTYPE svg PUBLIC "-//W3C//DTD SVG 20010904//EN"
 "http://www.w3.org/TR/2001/REC-SVG-20010904/DTD/svg10.dtd">
<svg version="1.0" xmlns="http://www.w3.org/2000/svg"
 width="200.000000pt" height="200.000000pt" viewBox="0 0 200.000000 200.000000"
 preserveAspectRatio="xMidYMid meet">
<metadata>
Created by potrace 1.11, written by Peter Selinger 2001-2013
</metadata>
<g transform="translate(0.000000,200.000000) scale(0.100000,-0.100000)"
fill="#000000" stroke="none">
<path d="M1467 1674 c-1 -2 -14 -5 -27 -7 -56 -11 -88 -20 -155 -44 -83 -31
-205 -89 -223 -107 -8 -7 -24 -46 -37 -87 -17 -55 -24 -66 -24 -44 -1 17 -4
40 -7 52 -6 22 -8 21 -45 -20 -48 -53 -97 -143 -105 -192 -3 -21 -7 -45 -9
-54 -2 -9 3 -27 10 -40 11 -22 8 -31 -30 -90 -55 -87 -90 -163 -78 -175 3 -3
28 27 56 67 93 133 102 142 145 139 67 -5 158 45 311 173 l83 69 -44 15 -43
15 81 16 c65 12 97 26 168 70 96 60 160 116 170 147 11 34 -11 73 -50 89 -29
12 -137 18 -147 8z m-45 -136 c-6 -7 -34 -26 -64 -41 -173 -91 -432 -341 -565
-547 -53 -80 -56 -70 -6 19 130 232 330 431 539 534 61 30 90 44 103 46 2 1
-1 -5 -7 -11z"/>
<path d="M106 1206 c-38 -33 -44 -43 -23 -43 70 0 236 -69 334 -139 128 -91
316 -303 406 -456 61 -105 27 -17 -41 107 -128 230 -346 439 -557 534 -69 31
-80 31 -119 -3z"/>
<path d="M3 1103 c3 -5 8 -29 12 -53 4 -25 8 -49 9 -55 2 -5 9 -38 16 -72 l12
-62 47 -7 c121 -18 288 -84 395 -157 83 -56 207 -177 284 -277 36 -47 66 -86
67 -87 0 -1 44 20 96 47 169 87 320 113 494 83 91 -15 210 -52 304 -94 l64
-29 40 42 c22 24 66 71 99 105 l58 61 -27 20 c-100 70 -246 114 -373 113 -162
-1 -314 -49 -607 -194 l-111 -54 -43 61 c-204 294 -348 445 -499 528 -51 28
-160 70 -160 63 0 -3 -8 -1 -19 4 -24 13 -165 25 -158 14z"/>
</g>
</svg>
